# xmcd
#
# Track frame offsets: 
#        150
#        12367
#        22467
#        33657
#        46069
#        58349
#        67527
#        78539
#        89741
#        97718
#        106692
#        116365
#        126574
#        135949
#        147547
#        160268
#        169029
#        180988
#        192543
#        202307
#        215085
#        227450
#        238341
#        249560
#        259225
#        271403
#        281639
#        291952
#        298313
#        308407
#        317287
#        327640
#        338933
#        348309
#
# Disc length: 4762 seconds
#
# Revision: 0
# Processed by: cddbd v1.5.2PL0 Copyright (c) Steve Scherf et al.
# Submitted via: ExactAudioCopyFreeDBPlugin 1.0
#
DISCID=0e129822
DTITLE=Various Artist - Hillbillies In Hell: The Rapture
DYEAR=2018
DGENRE=Country
TTITLE0=Lloyd Green - Panic (A Trip)
TTITLE1=Loy Clingman - It's Nothing To Me
TTITLE2=Ronnie Wolfe - The Devil
TTITLE3=Roy And Georgia and the SO and SO's - Devil Get Away From Me
TTITLE4=Robert Zehm - Satan's Suitcase
TTITLE5=Jack Turner - Nightmare
TTITLE6=Lynn Cramer with The Blue Sky Ramblers - Wild She Devil
TTITLE7=The Burton Family - Eternal Life
TTITLE8=The Statesmen Quartet - Turn Your Radio On
TTITLE9=Evangelist Allen Wingate - I Saw The Light
TTITLE10=Don Reno, Red Smiley and The Tennessee Cutups - Get Behind Me S
TTITLE10=atan
TTITLE11=Wayne Cochran - No Return
TTITLE12=Jesse Floyd - Satan's Wife
TTITLE13=G. M. Farley and The Foggy River Boys - Judas
TTITLE14=Ernest Martin and His Gospel Melody Makers - When The Wrath Of 
TTITLE14=God Comes Down
TTITLE15=Deacon Gilliland and Judy Tripp - You Can't Hide
TTITLE16=Margie Singleton - On The Cross
TTITLE17=Ernest Carter And The Hymn Trio - The Gospel Train
TTITLE18=Sunshine Boys Quartet - Stop Now, It's Praying Time
TTITLE19=Red Hayes - A Satisfied Mind
TTITLE20=Cowboy Howard Vokes and His Country Boys - Ghost Of A Honky Ton
TTITLE20=k Slave
TTITLE21=Bobby Griggs - Please Devil
TTITLE22=Johnny Bond - Let Me Go, Devil!
TTITLE23=The Looper Trio - Life Beyond Death
TTITLE24=Sister Ada Allen - Path Of Sin
TTITLE25=Reverend Tully McCoy - Fourth Man
TTITLE26=Jack Turner - Little Boy, Why Do You Weep
TTITLE27=Dallas Stamper And His Spiritual Rhythmettes - I Am
TTITLE28=Bill and Opal Carter with The Country Gents - Singing, Shouting
TTITLE28=, Praying
TTITLE29=Rev. John Carter - There Ain't No Grave Gonna Hold My Body Do
TTITLE29=wn
TTITLE30=The Statesmen with Hovie Lister - Get Thee Behind Me, Satan
TTITLE31=Sunshine Boys Quartet - Goodbye World, Goodbye
TTITLE32=Billy Massey - Ghost Town
TTITLE33=Lloyd Green - (pirT A) cinaP
EXTD=
EXTT0=
EXTT1=
EXTT2=
EXTT3=
EXTT4=
EXTT5=
EXTT6=
EXTT7=
EXTT8=
EXTT9=
EXTT10=
EXTT11=
EXTT12=
EXTT13=
EXTT14=
EXTT15=
EXTT16=
EXTT17=
EXTT18=
EXTT19=
EXTT20=
EXTT21=
EXTT22=
EXTT23=
EXTT24=
EXTT25=
EXTT26=
EXTT27=
EXTT28=
EXTT29=
EXTT30=
EXTT31=
EXTT32=
EXTT33=
PLAYORDER=
